<svg width="174" height="45" viewBox="0 0 174 45" fill="none" xmlns="http://www.w3.org/2000/svg">
<path d="M72.216 38C73.688 38 75.064 37.7227 76.344 37.168C77.6453 36.6133 78.7653 35.8133 79.704 34.768C80.5787 33.7867 81.24 32.6667 81.688 31.408C82.1573 30.1493 82.392 28.8267 82.392 27.44C82.392 26.0747 82.1573 24.7627 81.688 23.504C81.24 22.2453 80.5787 21.136 79.704 20.176C78.7653 19.1307 77.6453 18.3307 76.344 17.776C75.064 17.2213 73.688 16.944 72.216 16.944H65.624V38H72.216ZM69.208 20.56H72.216C74.2427 20.56 75.8427 21.232 77.016 22.576C77.592 23.216 78.0293 23.9627 78.328 24.816C78.648 25.648 78.808 26.5227 78.808 27.44C78.808 28.3787 78.648 29.2747 78.328 30.128C78.0293 30.9813 77.592 31.728 77.016 32.368C76.4187 33.0293 75.704 33.5413 74.872 33.904C74.0613 34.2453 73.176 34.416 72.216 34.416H69.208V20.56ZM96.5648 38.192C98.4848 38.192 100.255 37.712 101.877 36.752C103.519 35.792 104.821 34.4907 105.781 32.848C106.741 31.2053 107.221 29.4133 107.221 27.472C107.221 25.5307 106.741 23.7387 105.781 22.096C104.821 20.4533 103.519 19.152 101.877 18.192C100.255 17.232 98.4848 16.752 96.5648 16.752C94.6448 16.752 92.8634 17.232 91.2208 18.192C89.5994 19.152 88.3088 20.4533 87.3488 22.096C86.3888 23.7387 85.9088 25.5307 85.9088 27.472C85.9088 29.4133 86.3888 31.2053 87.3488 32.848C88.3088 34.4907 89.5994 35.792 91.2208 36.752C92.8634 37.712 94.6448 38.192 96.5648 38.192ZM96.5648 20.336C97.8448 20.336 99.0181 20.656 100.085 21.296C101.173 21.936 102.026 22.8 102.645 23.888C103.285 24.976 103.605 26.1707 103.605 27.472C103.605 28.7733 103.285 29.968 102.645 31.056C102.026 32.144 101.173 33.008 100.085 33.648C99.0181 34.288 97.8448 34.608 96.5648 34.608C95.2848 34.608 94.1008 34.288 93.0128 33.648C91.9461 33.008 91.0928 32.144 90.4528 31.056C89.8341 29.9467 89.5248 28.752 89.5248 27.472C89.5248 26.192 89.8341 25.008 90.4528 23.92C91.0928 22.8107 91.9461 21.936 93.0128 21.296C94.1008 20.656 95.2848 20.336 96.5648 20.336ZM122.125 38L115.053 28.72V38H111.469L111.437 16.944H119.149C120.173 16.944 121.133 17.1147 122.029 17.456C122.946 17.776 123.746 18.2453 124.429 18.864C125.111 19.4613 125.634 20.1547 125.997 20.944C126.359 21.712 126.541 22.5227 126.541 23.376C126.541 24.6773 126.125 25.872 125.293 26.96C124.567 27.8773 123.671 28.5387 122.605 28.944C122.221 29.0933 121.773 29.2213 121.261 29.328C120.77 29.4347 120.407 29.488 120.173 29.488L126.573 38H122.125ZM115.053 20.56V26.224H118.189C119.447 26.224 120.45 26.0533 121.197 25.712C121.666 25.52 122.071 25.2107 122.413 24.784C122.754 24.3573 122.925 23.888 122.925 23.376C122.925 22.672 122.626 22.0533 122.029 21.52C121.325 20.88 120.365 20.56 119.149 20.56H115.053ZM145.667 16.944V20.56H139.331V38H135.747V20.56H129.443V16.944H145.667ZM158.377 38.192C160.297 38.192 162.068 37.712 163.689 36.752C165.332 35.792 166.633 34.4907 167.593 32.848C168.553 31.2053 169.033 29.4133 169.033 27.472C169.033 25.5307 168.553 23.7387 167.593 22.096C166.633 20.4533 165.332 19.152 163.689 18.192C162.068 17.232 160.297 16.752 158.377 16.752C156.457 16.752 154.676 17.232 153.033 18.192C151.412 19.152 150.121 20.4533 149.161 22.096C148.201 23.7387 147.721 25.5307 147.721 27.472C147.721 29.4133 148.201 31.2053 149.161 32.848C150.121 34.4907 151.412 35.792 153.033 36.752C154.676 37.712 156.457 38.192 158.377 38.192ZM158.377 20.336C159.657 20.336 160.831 20.656 161.897 21.296C162.985 21.936 163.839 22.8 164.457 23.888C165.097 24.976 165.417 26.1707 165.417 27.472C165.417 28.7733 165.097 29.968 164.457 31.056C163.839 32.144 162.985 33.008 161.897 33.648C160.831 34.288 159.657 34.608 158.377 34.608C157.097 34.608 155.913 34.288 154.825 33.648C153.759 33.008 152.905 32.144 152.265 31.056C151.647 29.9467 151.337 28.752 151.337 27.472C151.337 26.192 151.647 25.008 152.265 23.92C152.905 22.8107 153.759 21.936 154.825 21.296C155.913 20.656 157.097 20.336 158.377 20.336Z" fill="url(#paint0_linear_2_826)"/>
<path fill-rule="evenodd" clip-rule="evenodd" d="M11.1887 45C19.7236 45 39.0086 38.2001 42.6398 24.0949C46.2709 9.98973 28.5869 0.96065 20.7384 0.186864C15.3202 -0.347318 8.08246 0.111882 7.98643 3.57961C7.98643 4.93376 8.44761 6.16984 9.15206 7.39103C9.668 8.28543 11.0057 10.0908 11.0057 10.0908L12.6612 12.3149L13.8049 14.0322L14.5565 15.2016C14.5565 15.2016 15.0422 15.9534 15.3209 16.4576C15.6058 16.9731 16.0669 17.8117 16.0669 17.8117C16.0669 17.8117 16.6569 19.031 16.9071 19.8792C17.1191 20.5979 17.2358 21.0553 17.3393 21.8283C17.4568 22.706 17.4516 23.2096 17.4218 24.0949C17.4014 24.6999 17.3869 25.0414 17.2956 25.6397C17.189 26.3388 16.8776 27.401 16.8776 27.401C16.8776 27.401 16.426 28.5851 16.0351 29.2923C15.6403 30.0063 15.3669 30.3788 14.8704 31.0248C14.1015 32.0251 12.6612 33.378 12.6612 33.378C12.6612 33.378 11.7706 34.2476 11.1459 34.7392C10.4923 35.2536 10.0937 35.5008 9.38745 35.9384C8.25525 36.64 6.37101 37.5259 6.37101 37.5259C6.37101 37.5259 2.12599 39.3617 1.21014 40.2646C-3.31741 44.7279 5.94042 45 11.1887 45ZM14.2752 39.4994C18.444 39.4994 33.7748 30.6879 33.7748 22.5789C33.7748 14.4699 27.0644 10.7693 22.8956 10.7693C20.0761 10.7693 20.4558 13.9942 20.9969 18.5906C21.2559 20.7902 21.5518 23.3038 21.5518 25.9284C21.5518 30.6709 17.637 34.508 15.2204 36.8766C13.505 38.558 12.5445 39.4994 14.2752 39.4994Z" fill="url(#paint1_linear_2_826)"/>
<path fill-rule="evenodd" clip-rule="evenodd" d="M11.7968 40.7988C22.9095 40.3789 34.6634 31.8077 34.6634 20.9344C34.6634 10.7271 24.9244 5.2832 14.0866 5.2832C9.89415 5.2832 11.6549 8.15955 14.1493 12.2344C16.2595 15.6818 18.8949 19.987 18.8949 24.1341C18.8949 31.5152 14.4095 36.0558 11.9983 38.4967C10.4129 40.1016 9.72415 40.7988 11.7968 40.7988ZM14.5934 38.8352C18.6457 38.8352 33.5482 30.3957 33.5482 22.629C33.5482 14.8623 27.0253 11.3179 22.973 11.3179C20.2761 11.3179 20.6873 14.4377 21.264 18.8141C21.5539 21.0136 21.8856 23.5305 21.8856 26.1283C21.8856 31.4335 17.6554 35.4199 15.5394 37.4138C14.5577 38.339 14.0311 38.8352 14.5934 38.8352Z" fill="url(#paint2_linear_2_826)"/>
<mask id="path-4-inside-1_2_826" fill="white">
<path fill-rule="evenodd" clip-rule="evenodd" d="M13.2084 40.3851C23.8566 39.6054 34.8493 30.8282 34.4884 20.1884C34.1496 10.2004 24.6249 5.19673 14.2265 5.55645C10.2041 5.6956 11.9889 8.45171 14.5174 12.3563C16.6565 15.6595 19.3279 19.7848 19.4656 23.8428C19.7106 31.0653 15.5578 35.6573 13.3253 38.1258C11.8575 39.7488 11.2198 40.4539 13.2084 40.3851Z"/>
</mask>
<path d="M13.2084 40.3851L13.344 44.3828L13.421 44.3801L13.4979 44.3745L13.2084 40.3851ZM14.5174 12.3563L11.1596 14.5322L14.5174 12.3563ZM19.4656 23.8428L15.468 23.9811L19.4656 23.8428ZM13.3253 38.1258L16.2911 40.8078L16.2911 40.8078L13.3253 38.1258ZM30.4908 20.3267C30.6209 24.1633 28.7103 27.952 25.3058 31.0085C21.8957 34.07 17.3122 36.074 12.919 36.3957L13.4979 44.3745C19.7528 43.9165 25.9897 41.142 30.6478 36.9601C35.3114 32.7731 38.7167 26.8534 38.486 20.0502L30.4908 20.3267ZM14.3621 9.55415C18.9406 9.39576 23.0516 10.4369 25.9268 12.3323C28.6836 14.1496 30.3698 16.7603 30.4908 20.3267L38.486 20.0502C38.2682 13.6286 35.0226 8.74342 30.3328 5.65183C25.7614 2.63831 19.9108 1.35741 14.0909 1.55875L14.3621 9.55415ZM17.8752 10.1803C17.2246 9.1757 16.7086 8.37638 16.3176 7.68814C15.8941 6.94285 15.8185 6.66656 15.8241 6.69271C15.8342 6.73908 15.8999 7.05406 15.8064 7.52154C15.6995 8.05622 15.4185 8.60723 14.9651 9.03554C14.5569 9.42112 14.1828 9.5438 14.0948 9.5694C14.0091 9.59432 14.0698 9.56426 14.3621 9.55415L14.0909 1.55875C12.8497 1.60168 10.9383 1.8381 9.47377 3.22155C7.68036 4.91572 7.72482 7.09876 8.00659 8.39594C8.27173 9.61659 8.86498 10.7701 9.36159 11.6441C9.89061 12.5751 10.5459 13.5845 11.1596 14.5322L17.8752 10.1803ZM23.4632 23.7045C23.3674 20.8818 22.4083 18.2552 21.3369 16.06C20.2614 13.8565 18.9245 11.8007 17.8752 10.1803L11.1596 14.5322C12.2494 16.2151 13.3178 17.8736 14.1472 19.573C14.9807 21.2808 15.4261 22.7458 15.468 23.9811L23.4632 23.7045ZM16.2911 40.8078C18.5438 38.3169 23.767 32.6601 23.4632 23.7045L15.468 23.9811C15.6542 29.4705 12.5717 32.9977 10.3595 35.4437L16.2911 40.8078ZM13.0728 36.3874C12.9234 36.3926 12.8987 36.3861 12.9566 36.3915C12.9821 36.3939 13.2945 36.4193 13.7175 36.595C14.1621 36.7796 15.0098 37.2548 15.5473 38.3078C16.0921 39.3751 15.9767 40.3645 15.847 40.8741C15.7268 41.3462 15.5431 41.6379 15.517 41.6799C15.4731 41.7507 15.4618 41.757 15.5282 41.6741C15.6721 41.4946 15.8949 41.2459 16.2911 40.8078L10.3595 35.4437C10.0218 35.8172 9.6144 36.2653 9.2881 36.6723C9.08072 36.9309 8.38068 37.7809 8.09443 38.9056C7.91755 39.6006 7.80897 40.7488 8.42166 41.949C9.02705 43.135 10.0036 43.7173 10.6452 43.9837C11.7196 44.4299 12.8387 44.4003 13.344 44.3828L13.0728 36.3874Z" fill="black" fill-opacity="0.2" mask="url(#path-4-inside-1_2_826)"/>
<defs>
<linearGradient id="paint0_linear_2_826" x1="203.976" y1="-0.693397" x2="172.483" y2="78.3579" gradientUnits="userSpaceOnUse">
<stop stop-color="#211E33"/>
<stop offset="0.335299" stop-color="#A43B42"/>
<stop offset="0.805077" stop-color="#FFA88C"/>
</linearGradient>
<linearGradient id="paint1_linear_2_826" x1="20.9243" y1="-0.000823068" x2="4.45672" y2="45.7204" gradientUnits="userSpaceOnUse">
<stop stop-color="#211E33"/>
<stop offset="0.615279" stop-color="#A43B42"/>
<stop offset="0.805077" stop-color="#FFA88C"/>
</linearGradient>
<linearGradient id="paint2_linear_2_826" x1="12.3334" y1="3.1173" x2="39.537" y2="39.9619" gradientUnits="userSpaceOnUse">
<stop offset="0.0458274" stop-color="#A5A5A5"/>
<stop offset="0.335551" stop-color="#EDEDEF"/>
<stop offset="0.509611" stop-color="#FCFCFC"/>
<stop offset="0.649458" stop-color="#ECECED"/>
<stop offset="1" stop-color="white"/>
</linearGradient>
</defs>
</svg>
