<svg width="277" height="97" viewBox="0 0 277 97" fill="none" xmlns="http://www.w3.org/2000/svg">
<path d="M123.4 68C125.7 68 127.85 67.5667 129.85 66.7C131.883 65.8333 133.633 64.5833 135.1 62.95C136.467 61.4167 137.5 59.6667 138.2 57.7C138.933 55.7333 139.3 53.6667 139.3 51.5C139.3 49.3667 138.933 47.3167 138.2 45.35C137.5 43.3833 136.467 41.65 135.1 40.15C133.633 38.5167 131.883 37.2667 129.85 36.4C127.85 35.5333 125.7 35.1 123.4 35.1H113.1V68H123.4ZM118.7 40.75H123.4C126.567 40.75 129.067 41.8 130.9 43.9C131.8 44.9 132.483 46.0667 132.95 47.4C133.45 48.7 133.7 50.0667 133.7 51.5C133.7 52.9667 133.45 54.3667 132.95 55.7C132.483 57.0333 131.8 58.2 130.9 59.2C129.967 60.2333 128.85 61.0333 127.55 61.6C126.283 62.1333 124.9 62.4 123.4 62.4H118.7V40.75ZM161.445 68.3C164.445 68.3 167.212 67.55 169.745 66.05C172.312 64.55 174.345 62.5167 175.845 59.95C177.345 57.3833 178.095 54.5833 178.095 51.55C178.095 48.5167 177.345 45.7167 175.845 43.15C174.345 40.5833 172.312 38.55 169.745 37.05C167.212 35.55 164.445 34.8 161.445 34.8C158.445 34.8 155.662 35.55 153.095 37.05C150.562 38.55 148.545 40.5833 147.045 43.15C145.545 45.7167 144.795 48.5167 144.795 51.55C144.795 54.5833 145.545 57.3833 147.045 59.95C148.545 62.5167 150.562 64.55 153.095 66.05C155.662 67.55 158.445 68.3 161.445 68.3ZM161.445 40.4C163.445 40.4 165.278 40.9 166.945 41.9C168.645 42.9 169.978 44.25 170.945 45.95C171.945 47.65 172.445 49.5167 172.445 51.55C172.445 53.5833 171.945 55.45 170.945 57.15C169.978 58.85 168.645 60.2 166.945 61.2C165.278 62.2 163.445 62.7 161.445 62.7C159.445 62.7 157.595 62.2 155.895 61.2C154.228 60.2 152.895 58.85 151.895 57.15C150.928 55.4167 150.445 53.55 150.445 51.55C150.445 49.55 150.928 47.7 151.895 46C152.895 44.2667 154.228 42.9 155.895 41.9C157.595 40.9 159.445 40.4 161.445 40.4ZM201.382 68L190.332 53.5V68H184.732L184.682 35.1H196.732C198.332 35.1 199.832 35.3667 201.232 35.9C202.665 36.4 203.915 37.1333 204.982 38.1C206.049 39.0333 206.865 40.1167 207.432 41.35C207.999 42.55 208.282 43.8167 208.282 45.15C208.282 47.1833 207.632 49.05 206.332 50.75C205.199 52.1833 203.799 53.2167 202.132 53.85C201.532 54.0833 200.832 54.2833 200.032 54.45C199.265 54.6167 198.699 54.7 198.332 54.7L208.332 68H201.382ZM190.332 40.75V49.6H195.232C197.199 49.6 198.765 49.3333 199.932 48.8C200.665 48.5 201.299 48.0167 201.832 47.35C202.365 46.6833 202.632 45.95 202.632 45.15C202.632 44.05 202.165 43.0833 201.232 42.25C200.132 41.25 198.632 40.75 196.732 40.75H190.332ZM238.167 35.1V40.75H228.267V68H222.667V40.75H212.817V35.1H238.167ZM258.027 68.3C261.027 68.3 263.794 67.55 266.327 66.05C268.894 64.55 270.927 62.5167 272.427 59.95C273.927 57.3833 274.677 54.5833 274.677 51.55C274.677 48.5167 273.927 45.7167 272.427 43.15C270.927 40.5833 268.894 38.55 266.327 37.05C263.794 35.55 261.027 34.8 258.027 34.8C255.027 34.8 252.244 35.55 249.677 37.05C247.144 38.55 245.127 40.5833 243.627 43.15C242.127 45.7167 241.377 48.5167 241.377 51.55C241.377 54.5833 242.127 57.3833 243.627 59.95C245.127 62.5167 247.144 64.55 249.677 66.05C252.244 67.55 255.027 68.3 258.027 68.3ZM258.027 40.4C260.027 40.4 261.86 40.9 263.527 41.9C265.227 42.9 266.56 44.25 267.527 45.95C268.527 47.65 269.027 49.5167 269.027 51.55C269.027 53.5833 268.527 55.45 267.527 57.15C266.56 58.85 265.227 60.2 263.527 61.2C261.86 62.2 260.027 62.7 258.027 62.7C256.027 62.7 254.177 62.2 252.477 61.2C250.81 60.2 249.477 58.85 248.477 57.15C247.51 55.4167 247.027 53.55 247.027 51.55C247.027 49.55 247.51 47.7 248.477 46C249.477 44.2667 250.81 42.9 252.477 41.9C254.177 40.9 256.027 40.4 258.027 40.4Z" fill="url(#paint0_linear_1_56)"/>
<path fill-rule="evenodd" clip-rule="evenodd" d="M24.1287 96.0937C42.5345 96.0937 84.1229 81.573 91.9536 51.4526C99.7842 21.3322 61.6482 2.05139 44.7228 0.399032C33.0384 -0.741668 17.43 0.238914 17.2229 7.64395C17.2229 10.5356 18.2175 13.1752 19.7366 15.7829C20.8492 17.6928 23.7341 21.548 23.7341 21.548L27.3041 26.2974L29.7705 29.9645L31.3915 32.4617C31.3915 32.4617 32.4389 34.0672 33.0398 35.1438C33.6542 36.2446 34.6486 38.0354 34.6486 38.0354C34.6486 38.0354 35.9209 40.6391 36.4606 42.4504C36.9178 43.9851 37.1694 44.9618 37.3926 46.6124C37.6459 48.4869 37.6347 49.5622 37.5704 51.4526C37.5265 52.7445 37.4951 53.4738 37.2984 54.7514C37.0685 56.2442 36.3969 58.5126 36.3969 58.5126C36.3969 58.5126 35.423 61.0412 34.58 62.5512C33.7287 64.076 33.1391 64.8713 32.0683 66.2508C30.4101 68.387 27.3041 71.276 27.3041 71.276C27.3041 71.276 25.3835 73.1329 24.0363 74.1827C22.6268 75.2811 21.7673 75.8089 20.2443 76.7434C17.8026 78.2416 13.7392 80.1333 13.7392 80.1333C13.7392 80.1333 4.58475 84.0537 2.60969 85.9817C-7.15406 95.5127 12.8106 96.0937 24.1287 96.0937ZM30.7857 84.3477C39.7758 84.3477 72.8371 65.5317 72.8371 48.2156C72.8371 30.8995 58.3659 22.9971 49.3758 22.9971C43.2955 22.9971 44.1143 29.8837 45.2812 39.6988C45.8397 44.3958 46.4779 49.7635 46.4779 55.368C46.4779 65.4953 38.0354 73.6891 32.824 78.7471C29.1247 82.3375 27.0534 84.3477 30.7857 84.3477Z" fill="url(#paint1_linear_1_56)"/>
<path fill-rule="evenodd" clip-rule="evenodd" d="M25.4383 87.1224C49.403 86.2258 74.7505 67.9226 74.7505 44.7036C74.7505 22.9068 53.7483 11.2819 30.3761 11.2819C21.3351 11.2819 25.1322 17.4241 30.5114 26.1256C35.0622 33.4872 40.7455 42.6806 40.7455 51.5364C40.7455 67.2981 31.0726 76.9941 25.8727 82.2064C22.4537 85.6336 20.9685 87.1224 25.4383 87.1224ZM31.4693 82.9295C40.2082 82.9295 72.3457 64.9077 72.3457 48.3225C72.3457 31.7373 58.2789 24.1685 49.54 24.1685C43.7241 24.1685 44.6108 30.8306 45.8546 40.1761C46.4797 44.8729 47.195 50.2476 47.195 55.795C47.195 67.1237 38.0724 75.6363 33.5094 79.8942C31.3922 81.8698 30.2566 82.9295 31.4693 82.9295Z" fill="url(#paint2_linear_1_56)"/>
<mask id="path-4-inside-1_1_56" fill="white">
<path fill-rule="evenodd" clip-rule="evenodd" d="M28.4847 86.2391C51.4476 84.5741 75.1536 65.8311 74.3754 43.1108C73.6447 21.7822 53.1046 11.0973 30.6802 11.8654C22.0058 12.1626 25.8548 18.048 31.3075 26.3858C35.9206 33.4397 41.6815 42.2489 41.9784 50.9144C42.5067 66.3375 33.5511 76.1432 28.7368 81.4144C25.5713 84.8804 24.1962 86.386 28.4847 86.2391Z"/>
</mask>
<path d="M28.4847 86.2391L28.6216 90.2367L28.6979 90.2341L28.774 90.2286L28.4847 86.2391ZM31.3075 26.3858L27.9598 28.5751L31.3075 26.3858ZM41.9784 50.9144L45.976 50.7775L41.9784 50.9144ZM28.7368 81.4144L25.7832 78.7169L25.7832 78.7169L28.7368 81.4144ZM70.3777 43.2478C70.7155 53.1086 65.7462 62.4062 57.6753 69.5812C49.6009 76.7593 38.7562 81.4838 28.1954 82.2495L28.774 90.2286C41.1761 89.3293 53.6659 83.8498 62.9906 75.5601C72.3189 67.2673 78.8135 55.8332 78.373 42.9739L70.3777 43.2478ZM30.8171 15.8631C41.4163 15.5 51.2934 17.8625 58.4765 22.5514C65.5405 27.1625 70.0619 34.0282 70.3777 43.2478L78.373 42.9739C77.9582 30.8649 71.8442 21.7238 62.8494 15.8523C53.9737 10.0586 42.3685 7.46268 30.5433 7.86776L30.8171 15.8631ZM34.6552 24.1965C33.2733 22.0835 32.0809 20.2576 31.1586 18.6505C30.2032 16.9854 29.7452 15.9002 29.6033 15.2533C29.4798 14.6905 29.757 15.3791 29.0844 16.0083C28.7539 16.3175 28.8782 15.9295 30.8171 15.8631L30.5433 7.86776C28.145 7.94991 25.4975 8.40906 23.6194 10.1659C21.3992 12.2427 21.353 14.9795 21.7891 16.9674C22.2067 18.8712 23.1911 20.8393 24.2199 22.6321C25.2818 24.4828 26.6153 26.5193 27.9598 28.5751L34.6552 24.1965ZM45.976 50.7775C45.8002 45.6432 44.0238 40.6889 41.8494 36.2773C39.6707 31.8571 36.9411 27.692 34.6552 24.1965L27.9598 28.5751C30.2869 32.1336 32.7444 35.9 34.6737 39.8142C36.6072 43.7371 37.8598 47.5201 37.9807 51.0514L45.976 50.7775ZM31.6903 84.112C36.5199 78.824 46.5642 67.9489 45.976 50.7775L37.9807 51.0514C38.4491 64.7262 30.5822 73.4624 25.7832 78.7169L31.6903 84.112ZM28.3478 82.2414C27.9098 82.2564 27.6434 82.2461 27.5025 82.2331C27.3292 82.217 27.485 82.2093 27.791 82.3352C28.1158 82.4687 28.8953 82.878 29.4006 83.8581C29.916 84.8579 29.795 85.7673 29.6896 86.1774C29.5943 86.548 29.4655 86.7213 29.5244 86.6272C29.565 86.5625 29.6655 86.4178 29.8676 86.1682C30.2829 85.6553 30.8695 85.0107 31.6903 84.112L25.7832 78.7169C25.0213 79.5512 24.2489 80.3945 23.6501 81.1341C23.1727 81.7237 22.2859 82.8456 21.9414 84.1858C21.7343 84.9915 21.6281 86.24 22.2898 87.5238C22.9415 88.7879 23.999 89.4258 24.7484 89.734C26.0447 90.2671 27.5423 90.2737 28.6216 90.2367L28.3478 82.2414Z" fill="black" fill-opacity="0.2" mask="url(#path-4-inside-1_1_56)"/>
<defs>
<linearGradient id="paint0_linear_1_56" x1="322.369" y1="5.83019" x2="257.52" y2="141.335" gradientUnits="userSpaceOnUse">
<stop stop-color="#211E33"/>
<stop offset="0.335299" stop-color="#A43B42"/>
<stop offset="0.805077" stop-color="#FFA88C"/>
</linearGradient>
<linearGradient id="paint1_linear_1_56" x1="45.1236" y1="-0.00175759" x2="10.2247" y2="97.851" gradientUnits="userSpaceOnUse">
<stop stop-color="#211E33"/>
<stop offset="0.615279" stop-color="#A43B42"/>
<stop offset="0.805077" stop-color="#FFA88C"/>
</linearGradient>
<linearGradient id="paint2_linear_1_56" x1="26.5954" y1="6.65675" x2="84.5158" y2="85.8796" gradientUnits="userSpaceOnUse">
<stop offset="0.0458274" stop-color="#A5A5A5"/>
<stop offset="0.335551" stop-color="#EDEDEF"/>
<stop offset="0.509611" stop-color="#FCFCFC"/>
<stop offset="0.649458" stop-color="#ECECED"/>
<stop offset="1" stop-color="white"/>
</linearGradient>
</defs>
</svg>
