<svg width="371" height="146" viewBox="0 0 371 146" fill="none" xmlns="http://www.w3.org/2000/svg">
<g filter="url(#filter0_bd_41_288)">
<rect x="23" y="19" width="325" height="100" rx="20" fill="url(#paint0_linear_41_288)" shape-rendering="crispEdges"/>
</g>
<path d="M90.928 84V79.968H80.02V60.312H75.952V84H90.928ZM111.459 84V79.968H100.551V74.172H108.759V70.104H100.551V64.38H111.459V60.312H96.4833V84H111.459ZM121.975 80.76L120.463 84H115.999L126.979 60.312L137.419 84H132.991L131.551 80.76H121.975ZM126.871 70.14L123.847 76.692H129.751L126.871 70.14ZM153.999 84L146.043 73.56V84H142.011L141.975 60.312H150.651C151.803 60.312 152.883 60.504 153.891 60.888C154.923 61.248 155.823 61.776 156.591 62.472C157.359 63.144 157.947 63.924 158.355 64.812C158.763 65.676 158.967 66.588 158.967 67.548C158.967 69.012 158.499 70.356 157.563 71.58C156.747 72.612 155.739 73.356 154.539 73.812C154.107 73.98 153.603 74.124 153.027 74.244C152.475 74.364 152.067 74.424 151.803 74.424L159.003 84H153.999ZM146.043 64.38V70.752H149.571C150.987 70.752 152.115 70.56 152.955 70.176C153.483 69.96 153.939 69.612 154.323 69.132C154.707 68.652 154.899 68.124 154.899 67.548C154.899 66.756 154.563 66.06 153.891 65.46C153.099 64.74 152.019 64.38 150.651 64.38H146.043ZM182.808 84.54V60.312H178.776V74.568L164.16 59.952V84H168.192V69.924L182.808 84.54ZM223.863 84V59.952L211.731 76.944L199.527 59.952V84H203.559V72.552L211.731 83.892L219.831 72.588V84H223.863ZM240.803 84.216C242.963 84.216 244.955 83.676 246.779 82.596C248.627 81.516 250.091 80.052 251.171 78.204C252.251 76.356 252.791 74.34 252.791 72.156C252.791 69.972 252.251 67.956 251.171 66.108C250.091 64.26 248.627 62.796 246.779 61.716C244.955 60.636 242.963 60.096 240.803 60.096C238.643 60.096 236.639 60.636 234.791 61.716C232.967 62.796 231.515 64.26 230.435 66.108C229.355 67.956 228.815 69.972 228.815 72.156C228.815 74.34 229.355 76.356 230.435 78.204C231.515 80.052 232.967 81.516 234.791 82.596C236.639 83.676 238.643 84.216 240.803 84.216ZM240.803 64.128C242.243 64.128 243.563 64.488 244.763 65.208C245.987 65.928 246.947 66.9 247.643 68.124C248.363 69.348 248.723 70.692 248.723 72.156C248.723 73.62 248.363 74.964 247.643 76.188C246.947 77.412 245.987 78.384 244.763 79.104C243.563 79.824 242.243 80.184 240.803 80.184C239.363 80.184 238.031 79.824 236.807 79.104C235.607 78.384 234.647 77.412 233.927 76.188C233.231 74.94 232.883 73.596 232.883 72.156C232.883 70.716 233.231 69.384 233.927 68.16C234.647 66.912 235.607 65.928 236.807 65.208C238.031 64.488 239.363 64.128 240.803 64.128ZM269.558 84L261.602 73.56V84H257.57L257.534 60.312H266.21C267.362 60.312 268.442 60.504 269.45 60.888C270.482 61.248 271.382 61.776 272.15 62.472C272.918 63.144 273.506 63.924 273.914 64.812C274.322 65.676 274.526 66.588 274.526 67.548C274.526 69.012 274.058 70.356 273.122 71.58C272.306 72.612 271.298 73.356 270.098 73.812C269.666 73.98 269.162 74.124 268.586 74.244C268.034 74.364 267.626 74.424 267.362 74.424L274.562 84H269.558ZM261.602 64.38V70.752H265.13C266.546 70.752 267.674 70.56 268.514 70.176C269.042 69.96 269.498 69.612 269.882 69.132C270.266 68.652 270.458 68.124 270.458 67.548C270.458 66.756 270.122 66.06 269.45 65.46C268.658 64.74 267.578 64.38 266.21 64.38H261.602ZM294.658 84V79.968H283.75V74.172H291.958V70.104H283.75V64.38H294.658V60.312H279.682V84H294.658Z" fill="#FFA88C"/>
<defs>
<filter id="filter0_bd_41_288" x="-17" y="-21" width="405" height="180" filterUnits="userSpaceOnUse" color-interpolation-filters="sRGB">
<feFlood flood-opacity="0" result="BackgroundImageFix"/>
<feGaussianBlur in="BackgroundImage" stdDeviation="20"/>
<feComposite in2="SourceAlpha" operator="in" result="effect1_backgroundBlur_41_288"/>
<feColorMatrix in="SourceAlpha" type="matrix" values="0 0 0 0 0 0 0 0 0 0 0 0 0 0 0 0 0 0 127 0" result="hardAlpha"/>
<feMorphology radius="1" operator="erode" in="SourceAlpha" result="effect2_dropShadow_41_288"/>
<feOffset dy="4"/>
<feGaussianBlur stdDeviation="12"/>
<feComposite in2="hardAlpha" operator="out"/>
<feColorMatrix type="matrix" values="0 0 0 0 0 0 0 0 0 0 0 0 0 0 0 0 0 0 0.2 0"/>
<feBlend mode="normal" in2="effect1_backgroundBlur_41_288" result="effect2_dropShadow_41_288"/>
<feBlend mode="normal" in="SourceGraphic" in2="effect2_dropShadow_41_288" result="shape"/>
</filter>
<linearGradient id="paint0_linear_41_288" x1="43.0181" y1="19" x2="161.825" y2="214.86" gradientUnits="userSpaceOnUse">
<stop stop-color="white" stop-opacity="0.4"/>
<stop offset="1" stop-color="white" stop-opacity="0.15"/>
</linearGradient>
</defs>
</svg>
